<svg width="42" height="42" viewBox="0 0 42 42" fill="none" xmlns="http://www.w3.org/2000/svg">
<circle cx="21" cy="21" r="20.5" stroke="white"/>
<path d="M20.5023 15.1159C17.5228 15.1159 15.1194 17.5197 15.1194 20.5C15.1194 23.4803 17.5228 25.8841 20.5023 25.8841C23.4819 25.8841 25.8853 23.4803 25.8853 20.5C25.8853 17.5197 23.4819 15.1159 20.5023 15.1159ZM20.5023 24.0004C18.5769 24.0004 17.0027 22.4306 17.0027 20.5C17.0027 18.5694 18.5722 16.9996 20.5023 16.9996C22.4325 16.9996 24.002 18.5694 24.002 20.5C24.002 22.4306 22.4278 24.0004 20.5023 24.0004ZM27.361 14.8956C27.361 15.5938 26.7988 16.1515 26.1055 16.1515C25.4074 16.1515 24.8499 15.5891 24.8499 14.8956C24.8499 14.2021 25.4121 13.6398 26.1055 13.6398C26.7988 13.6398 27.361 14.2021 27.361 14.8956ZM30.9262 16.1702C30.8466 14.488 30.4624 12.9978 29.2303 11.7701C28.0028 10.5424 26.5131 10.1582 24.8312 10.0738C23.0978 9.9754 17.9022 9.9754 16.1688 10.0738C14.4916 10.1535 13.0018 10.5377 11.7697 11.7654C10.5376 12.9931 10.1581 14.4833 10.0738 16.1655C9.9754 17.8993 9.9754 23.096 10.0738 24.8298C10.1534 26.512 10.5376 28.0022 11.7697 29.2299C13.0018 30.4576 14.4869 30.8419 16.1688 30.9262C17.9022 31.0246 23.0978 31.0246 24.8312 30.9262C26.5131 30.8465 28.0028 30.4623 29.2303 29.2299C30.4577 28.0022 30.8419 26.512 30.9262 24.8298C31.0246 23.096 31.0246 17.904 30.9262 16.1702ZM28.6868 26.6901C28.3214 27.6086 27.614 28.3161 26.6911 28.6863C25.309 29.2346 22.0296 29.1081 20.5023 29.1081C18.9751 29.1081 15.691 29.2299 14.3136 28.6863C13.3954 28.3208 12.688 27.6132 12.3178 26.6901C11.7697 25.3078 11.8962 22.0276 11.8962 20.5C11.8962 18.9724 11.7744 15.6875 12.3178 14.3099C12.6833 13.3914 13.3907 12.6839 14.3136 12.3137C15.6956 11.7654 18.9751 11.8919 20.5023 11.8919C22.0296 11.8919 25.3137 11.7701 26.6911 12.3137C27.6093 12.6792 28.3167 13.3868 28.6868 14.3099C29.235 15.6922 29.1085 18.9724 29.1085 20.5C29.1085 22.0276 29.235 25.3125 28.6868 26.6901Z" fill="white"/>
</svg>
