<svg width="62" height="62" viewBox="0 0 62 62" fill="none" xmlns="http://www.w3.org/2000/svg">
<circle cx="31" cy="31" r="30.5" stroke="#236257"/>
<path d="M24.6319 29.9603C26.4719 33.5764 29.43 36.5344 33.0525 38.3744L35.8636 35.5569C36.215 35.2056 36.7197 35.1033 37.1606 35.2439C38.5917 35.7167 40.1314 35.9722 41.7222 35.9722C42.4314 35.9722 43 36.5408 43 37.25V41.7222C43 42.4314 42.4314 43 41.7222 43C29.7239 43 20 33.2761 20 21.2778C20 20.5686 20.575 20 21.2778 20H25.75C26.4592 20 27.0278 20.5686 27.0278 21.2778C27.0278 22.8686 27.2833 24.4083 27.7561 25.8394C27.8967 26.2803 27.7944 26.785 27.4431 27.1364L24.6319 29.9603Z" fill="#236257"/>
</svg>
