<svg width="42" height="42" viewBox="0 0 42 42" fill="none" xmlns="http://www.w3.org/2000/svg">
<circle cx="21" cy="21" r="20.5" stroke="white"/>
<path d="M33.4074 15.0172C33.586 14.4312 33.4074 14 32.5483 14H29.7054C28.9814 14 28.6484 14.3703 28.4698 14.7828C28.4698 14.7828 27.0218 18.2094 24.9753 20.4312C24.3141 21.0734 24.01 21.2797 23.648 21.2797C23.4694 21.2797 23.1943 21.0734 23.1943 20.4875V15.0172C23.1943 14.3141 22.9915 14 22.393 14H17.9236C17.4699 14 17.1996 14.3281 17.1996 14.6328C17.1996 15.2984 18.2228 15.4531 18.329 17.3281V21.3969C18.329 22.2875 18.1649 22.4516 17.8029 22.4516C16.8376 22.4516 14.4918 19.0109 13.1018 15.0734C12.8218 14.3094 12.5467 14 11.8179 14H8.97498C8.16411 14 8 14.3703 8 14.7828C8 15.5141 8.96533 19.1469 12.4936 23.9469C14.8442 27.2234 18.1553 29 21.1671 29C22.9771 29 23.1991 28.6063 23.1991 27.9266C23.1991 24.7953 23.035 24.5 23.9424 24.5C24.3623 24.5 25.0863 24.7063 26.7756 26.2859C28.7063 28.1609 29.0249 29 30.106 29H32.9489C33.7598 29 34.1701 28.6062 33.9336 27.8281C33.393 26.1922 29.7392 22.8266 29.5751 22.6016C29.1552 22.0766 29.2758 21.8422 29.5751 21.3734C29.5799 21.3688 33.0503 16.625 33.4074 15.0172Z" fill="white"/>
</svg>
