<svg width="42" height="42" viewBox="0 0 42 42" fill="none" xmlns="http://www.w3.org/2000/svg">
<circle cx="21" cy="21" r="20.5" stroke="white"/>
<path d="M27.8547 13.0516C25.8906 11.0828 23.275 10 20.4953 10C14.7578 10 10.0891 14.6687 10.0891 20.4062C10.0891 22.2391 10.5672 24.0297 11.4766 25.6094L10 31L15.5172 29.5516C17.0359 30.3813 18.7469 30.8172 20.4906 30.8172H20.4953C26.2281 30.8172 31 26.1484 31 20.4109C31 17.6313 29.8188 15.0203 27.8547 13.0516ZM20.4953 29.0641C18.9391 29.0641 17.4156 28.6469 16.0891 27.8594L15.775 27.6719L12.5031 28.5297L13.375 25.3375L13.1687 25.0094C12.3016 23.6313 11.8469 22.0422 11.8469 20.4062C11.8469 15.6391 15.7281 11.7578 20.5 11.7578C22.8109 11.7578 24.9813 12.6578 26.6125 14.2937C28.2438 15.9297 29.2469 18.1 29.2422 20.4109C29.2422 25.1828 25.2625 29.0641 20.4953 29.0641ZM25.2391 22.5859C24.9813 22.4547 23.7016 21.8266 23.4625 21.7422C23.2234 21.6531 23.05 21.6109 22.8766 21.8734C22.7031 22.1359 22.2063 22.7172 22.0516 22.8953C21.9016 23.0688 21.7469 23.0922 21.4891 22.9609C19.9609 22.1969 18.9578 21.5969 17.95 19.8672C17.6828 19.4078 18.2172 19.4406 18.7141 18.4469C18.7984 18.2734 18.7562 18.1234 18.6906 17.9922C18.625 17.8609 18.1047 16.5813 17.8891 16.0609C17.6781 15.5547 17.4625 15.625 17.3031 15.6156C17.1531 15.6063 16.9797 15.6063 16.8063 15.6063C16.6328 15.6063 16.3516 15.6719 16.1125 15.9297C15.8734 16.1922 15.2031 16.8203 15.2031 18.1C15.2031 19.3797 16.1359 20.6172 16.2625 20.7906C16.3938 20.9641 18.0953 23.5891 20.7062 24.7188C22.3562 25.4313 23.0031 25.4922 23.8281 25.3703C24.3297 25.2953 25.3656 24.7422 25.5813 24.1328C25.7969 23.5234 25.7969 23.0031 25.7313 22.8953C25.6703 22.7781 25.4969 22.7125 25.2391 22.5859Z" fill="white"/>
</svg>
